<svg xmlns="http://www.w3.org/2000/svg" width="900" height="388" viewBox="0 0 900 388" role="img" aria-label="Status page: Cloud Architecture, DevOps and SRE, Kubernetes and Containers, Infrastructure as Code, Observability, all operational">
  <defs>
    <style>
      .sans { font-family: -apple-system,BlinkMacSystemFont,'Segoe UI','Noto Sans',Helvetica,Arial,sans-serif; }
      .mono { font-family: ui-monospace,SFMono-Regular,'SF Mono',Menlo,Consolas,'Liberation Mono',monospace; }
      .rise { opacity: 0; animation: rise .8s ease-out forwards; }
      .d1 { animation-delay: .15s; } .d2 { animation-delay: .3s; }
      .d3 { animation-delay: .45s; } .d4 { animation-delay: .6s; }
      .ping { transform-box: fill-box; transform-origin: center; animation: ping 2s ease-out infinite; }
      @keyframes rise { from { opacity: 0; transform: translateY(6px); } to { opacity: 1; transform: none; } }
      @keyframes ping { 0% { transform: scale(1); opacity: .6; } 100% { transform: scale(3.2); opacity: 0; } }
      @media (prefers-reduced-motion: reduce) { * { animation: none !important; opacity: 1 !important; } }
      .bar { opacity: 0; animation: in .35s ease-out forwards; }
      @keyframes in { to { opacity: .9; } }
    </style>
  </defs>
  <rect x="1" y="1" width="898" height="386" rx="14" fill="#0d1117" stroke="#30363d"/>
  <circle class="ping" cx="48" cy="46" r="5" fill="#3fb950"/>
  <circle cx="48" cy="46" r="5" fill="#3fb950"/>
  <text x="64" y="51" class="sans" font-size="17" font-weight="600" fill="#e6edf3">All systems operational</text>
  <text x="860" y="51" text-anchor="end" class="mono" font-size="12.5" fill="#8b949e">vish.status · last 48 weeks</text>
  <line x1="1" x2="899" y1="76" y2="76" stroke="#30363d"/>
  <text x="40" y="114" class="sans" font-size="15" font-weight="600" fill="#e6edf3">Cloud Architecture</text>
  <text x="40" y="133" class="sans" font-size="12.5" fill="#8b949e">AWS · Google Cloud · designing for failure</text>
  <rect class="bar" style="animation-delay:0.000s" x="360" y="102" width="5" height="28" rx="1.5" fill="#3fb950"/>
  <rect class="bar" style="animation-delay:0.012s" x="368" y="102" width="5" height="28" rx="1.5" fill="#3fb950"/>
  <rect class="bar" style="animation-delay:0.024s" x="376" y="102" width="5" height="28" rx="1.5" fill="#3fb950"/>
  <rect class="bar" style="animation-delay:0.036s" x="384" y="102" width="5" height="28" rx="1.5" fill="#3fb950"/>
  <rect class="bar" style="animation-delay:0.048s" x="392" y="102" width="5" height="28" rx="1.5" fill="#3fb950"/>
  <rect class="bar" style="animation-delay:0.060s" x="400" y="102" width="5" height="28" rx="1.5" fill="#3fb950"/>
  <rect class="bar" style="animation-delay:0.072s" x="408" y="102" width="5" height="28" rx="1.5" fill="#d29922"/>
  <rect class="bar" style="animation-delay:0.084s" x="416" y="102" width="5" height="28" rx="1.5" fill="#3fb950"/>
  <rect class="bar" style="animation-delay:0.096s" x="424" y="102" width="5" height="28" rx="1.5" fill="#3fb950"/>
  <rect class="bar" style="animation-delay:0.108s" x="432" y="102" width="5" height="28" rx="1.5" fill="#3fb950"/>
  <rect class="bar" style="animation-delay:0.120s" x="440" y="102" width="5" height="28" rx="1.5" fill="#3fb950"/>
  <rect class="bar" style="animation-delay:0.132s" x="448" y="102" width="5" height="28" rx="1.5" fill="#3fb950"/>
  <rect class="bar" style="animation-delay:0.144s" x="456" y="102" width="5" height="28" rx="1.5" fill="#3fb950"/>
  <rect class="bar" style="animation-delay:0.156s" x="464" y="102" width="5" height="28" rx="1.5" fill="#3fb950"/>
  <rect class="bar" style="animation-delay:0.168s" x="472" y="102" width="5" height="28" rx="1.5" fill="#3fb950"/>
  <rect class="bar" style="animation-delay:0.180s" x="480" y="102" width="5" height="28" rx="1.5" fill="#3fb950"/>
  <rect class="bar" style="animation-delay:0.192s" x="488" y="102" width="5" height="28" rx="1.5" fill="#3fb950"/>
  <rect class="bar" style="animation-delay:0.204s" x="496" y="102" width="5" height="28" rx="1.5" fill="#3fb950"/>
  <rect class="bar" style="animation-delay:0.216s" x="504" y="102" width="5" height="28" rx="1.5" fill="#3fb950"/>
  <rect class="bar" style="animation-delay:0.228s" x="512" y="102" width="5" height="28" rx="1.5" fill="#3fb950"/>
  <rect class="bar" style="animation-delay:0.240s" x="520" y="102" width="5" height="28" rx="1.5" fill="#3fb950"/>
  <rect class="bar" style="animation-delay:0.252s" x="528" y="102" width="5" height="28" rx="1.5" fill="#3fb950"/>
  <rect class="bar" style="animation-delay:0.264s" x="536" y="102" width="5" height="28" rx="1.5" fill="#3fb950"/>
  <rect class="bar" style="animation-delay:0.276s" x="544" y="102" width="5" height="28" rx="1.5" fill="#3fb950"/>
  <rect class="bar" style="animation-delay:0.288s" x="552" y="102" width="5" height="28" rx="1.5" fill="#3fb950"/>
  <rect class="bar" style="animation-delay:0.300s" x="560" y="102" width="5" height="28" rx="1.5" fill="#3fb950"/>
  <rect class="bar" style="animation-delay:0.312s" x="568" y="102" width="5" height="28" rx="1.5" fill="#3fb950"/>
  <rect class="bar" style="animation-delay:0.324s" x="576" y="102" width="5" height="28" rx="1.5" fill="#3fb950"/>
  <rect class="bar" style="animation-delay:0.336s" x="584" y="102" width="5" height="28" rx="1.5" fill="#3fb950"/>
  <rect class="bar" style="animation-delay:0.348s" x="592" y="102" width="5" height="28" rx="1.5" fill="#3fb950"/>
  <rect class="bar" style="animation-delay:0.360s" x="600" y="102" width="5" height="28" rx="1.5" fill="#3fb950"/>
  <rect class="bar" style="animation-delay:0.372s" x="608" y="102" width="5" height="28" rx="1.5" fill="#3fb950"/>
  <rect class="bar" style="animation-delay:0.384s" x="616" y="102" width="5" height="28" rx="1.5" fill="#3fb950"/>
  <rect class="bar" style="animation-delay:0.396s" x="624" y="102" width="5" height="28" rx="1.5" fill="#3fb950"/>
  <rect class="bar" style="animation-delay:0.408s" x="632" y="102" width="5" height="28" rx="1.5" fill="#3fb950"/>
  <rect class="bar" style="animation-delay:0.420s" x="640" y="102" width="5" height="28" rx="1.5" fill="#3fb950"/>
  <rect class="bar" style="animation-delay:0.432s" x="648" y="102" width="5" height="28" rx="1.5" fill="#3fb950"/>
  <rect class="bar" style="animation-delay:0.444s" x="656" y="102" width="5" height="28" rx="1.5" fill="#3fb950"/>
  <rect class="bar" style="animation-delay:0.456s" x="664" y="102" width="5" height="28" rx="1.5" fill="#3fb950"/>
  <rect class="bar" style="animation-delay:0.468s" x="672" y="102" width="5" height="28" rx="1.5" fill="#3fb950"/>
  <rect class="bar" style="animation-delay:0.480s" x="680" y="102" width="5" height="28" rx="1.5" fill="#3fb950"/>
  <rect class="bar" style="animation-delay:0.492s" x="688" y="102" width="5" height="28" rx="1.5" fill="#3fb950"/>
  <rect class="bar" style="animation-delay:0.504s" x="696" y="102" width="5" height="28" rx="1.5" fill="#3fb950"/>
  <rect class="bar" style="animation-delay:0.516s" x="704" y="102" width="5" height="28" rx="1.5" fill="#3fb950"/>
  <rect class="bar" style="animation-delay:0.528s" x="712" y="102" width="5" height="28" rx="1.5" fill="#3fb950"/>
  <rect class="bar" style="animation-delay:0.540s" x="720" y="102" width="5" height="28" rx="1.5" fill="#3fb950"/>
  <rect class="bar" style="animation-delay:0.552s" x="728" y="102" width="5" height="28" rx="1.5" fill="#3fb950"/>
  <rect class="bar" style="animation-delay:0.564s" x="736" y="102" width="5" height="28" rx="1.5" fill="#3fb950"/>
  <text x="860" y="121" text-anchor="end" class="mono" font-size="13" fill="#3fb950">99.99%</text>
  <line x1="40" x2="860" y1="146" y2="146" stroke="#21262d"/>
  <text x="40" y="168" class="sans" font-size="15" font-weight="600" fill="#e6edf3">DevOps &amp; SRE</text>
  <text x="40" y="187" class="sans" font-size="12.5" fill="#8b949e">on-call, calm, caffeinated</text>
  <rect class="bar" style="animation-delay:0.050s" x="360" y="156" width="5" height="28" rx="1.5" fill="#3fb950"/>
  <rect class="bar" style="animation-delay:0.062s" x="368" y="156" width="5" height="28" rx="1.5" fill="#3fb950"/>
  <rect class="bar" style="animation-delay:0.074s" x="376" y="156" width="5" height="28" rx="1.5" fill="#3fb950"/>
  <rect class="bar" style="animation-delay:0.086s" x="384" y="156" width="5" height="28" rx="1.5" fill="#3fb950"/>
  <rect class="bar" style="animation-delay:0.098s" x="392" y="156" width="5" height="28" rx="1.5" fill="#3fb950"/>
  <rect class="bar" style="animation-delay:0.110s" x="400" y="156" width="5" height="28" rx="1.5" fill="#3fb950"/>
  <rect class="bar" style="animation-delay:0.122s" x="408" y="156" width="5" height="28" rx="1.5" fill="#3fb950"/>
  <rect class="bar" style="animation-delay:0.134s" x="416" y="156" width="5" height="28" rx="1.5" fill="#3fb950"/>
  <rect class="bar" style="animation-delay:0.146s" x="424" y="156" width="5" height="28" rx="1.5" fill="#3fb950"/>
  <rect class="bar" style="animation-delay:0.158s" x="432" y="156" width="5" height="28" rx="1.5" fill="#3fb950"/>
  <rect class="bar" style="animation-delay:0.170s" x="440" y="156" width="5" height="28" rx="1.5" fill="#3fb950"/>
  <rect class="bar" style="animation-delay:0.182s" x="448" y="156" width="5" height="28" rx="1.5" fill="#3fb950"/>
  <rect class="bar" style="animation-delay:0.194s" x="456" y="156" width="5" height="28" rx="1.5" fill="#3fb950"/>
  <rect class="bar" style="animation-delay:0.206s" x="464" y="156" width="5" height="28" rx="1.5" fill="#3fb950"/>
  <rect class="bar" style="animation-delay:0.218s" x="472" y="156" width="5" height="28" rx="1.5" fill="#3fb950"/>
  <rect class="bar" style="animation-delay:0.230s" x="480" y="156" width="5" height="28" rx="1.5" fill="#3fb950"/>
  <rect class="bar" style="animation-delay:0.242s" x="488" y="156" width="5" height="28" rx="1.5" fill="#3fb950"/>
  <rect class="bar" style="animation-delay:0.254s" x="496" y="156" width="5" height="28" rx="1.5" fill="#3fb950"/>
  <rect class="bar" style="animation-delay:0.266s" x="504" y="156" width="5" height="28" rx="1.5" fill="#3fb950"/>
  <rect class="bar" style="animation-delay:0.278s" x="512" y="156" width="5" height="28" rx="1.5" fill="#3fb950"/>
  <rect class="bar" style="animation-delay:0.290s" x="520" y="156" width="5" height="28" rx="1.5" fill="#3fb950"/>
  <rect class="bar" style="animation-delay:0.302s" x="528" y="156" width="5" height="28" rx="1.5" fill="#3fb950"/>
  <rect class="bar" style="animation-delay:0.314s" x="536" y="156" width="5" height="28" rx="1.5" fill="#3fb950"/>
  <rect class="bar" style="animation-delay:0.326s" x="544" y="156" width="5" height="28" rx="1.5" fill="#3fb950"/>
  <rect class="bar" style="animation-delay:0.338s" x="552" y="156" width="5" height="28" rx="1.5" fill="#3fb950"/>
  <rect class="bar" style="animation-delay:0.350s" x="560" y="156" width="5" height="28" rx="1.5" fill="#3fb950"/>
  <rect class="bar" style="animation-delay:0.362s" x="568" y="156" width="5" height="28" rx="1.5" fill="#3fb950"/>
  <rect class="bar" style="animation-delay:0.374s" x="576" y="156" width="5" height="28" rx="1.5" fill="#3fb950"/>
  <rect class="bar" style="animation-delay:0.386s" x="584" y="156" width="5" height="28" rx="1.5" fill="#3fb950"/>
  <rect class="bar" style="animation-delay:0.398s" x="592" y="156" width="5" height="28" rx="1.5" fill="#3fb950"/>
  <rect class="bar" style="animation-delay:0.410s" x="600" y="156" width="5" height="28" rx="1.5" fill="#3fb950"/>
  <rect class="bar" style="animation-delay:0.422s" x="608" y="156" width="5" height="28" rx="1.5" fill="#3fb950"/>
  <rect class="bar" style="animation-delay:0.434s" x="616" y="156" width="5" height="28" rx="1.5" fill="#3fb950"/>
  <rect class="bar" style="animation-delay:0.446s" x="624" y="156" width="5" height="28" rx="1.5" fill="#3fb950"/>
  <rect class="bar" style="animation-delay:0.458s" x="632" y="156" width="5" height="28" rx="1.5" fill="#3fb950"/>
  <rect class="bar" style="animation-delay:0.470s" x="640" y="156" width="5" height="28" rx="1.5" fill="#3fb950"/>
  <rect class="bar" style="animation-delay:0.482s" x="648" y="156" width="5" height="28" rx="1.5" fill="#3fb950"/>
  <rect class="bar" style="animation-delay:0.494s" x="656" y="156" width="5" height="28" rx="1.5" fill="#3fb950"/>
  <rect class="bar" style="animation-delay:0.506s" x="664" y="156" width="5" height="28" rx="1.5" fill="#3fb950"/>
  <rect class="bar" style="animation-delay:0.518s" x="672" y="156" width="5" height="28" rx="1.5" fill="#3fb950"/>
  <rect class="bar" style="animation-delay:0.530s" x="680" y="156" width="5" height="28" rx="1.5" fill="#3fb950"/>
  <rect class="bar" style="animation-delay:0.542s" x="688" y="156" width="5" height="28" rx="1.5" fill="#3fb950"/>
  <rect class="bar" style="animation-delay:0.554s" x="696" y="156" width="5" height="28" rx="1.5" fill="#3fb950"/>
  <rect class="bar" style="animation-delay:0.566s" x="704" y="156" width="5" height="28" rx="1.5" fill="#3fb950"/>
  <rect class="bar" style="animation-delay:0.578s" x="712" y="156" width="5" height="28" rx="1.5" fill="#3fb950"/>
  <rect class="bar" style="animation-delay:0.590s" x="720" y="156" width="5" height="28" rx="1.5" fill="#3fb950"/>
  <rect class="bar" style="animation-delay:0.602s" x="728" y="156" width="5" height="28" rx="1.5" fill="#3fb950"/>
  <rect class="bar" style="animation-delay:0.614s" x="736" y="156" width="5" height="28" rx="1.5" fill="#3fb950"/>
  <text x="860" y="175" text-anchor="end" class="mono" font-size="13" fill="#3fb950">99.98%</text>
  <line x1="40" x2="860" y1="200" y2="200" stroke="#21262d"/>
  <text x="40" y="222" class="sans" font-size="15" font-weight="600" fill="#e6edf3">Kubernetes &amp; Containers</text>
  <text x="40" y="241" class="sans" font-size="12.5" fill="#8b949e">Kubernetes · Docker · Linux</text>
  <rect class="bar" style="animation-delay:0.100s" x="360" y="210" width="5" height="28" rx="1.5" fill="#3fb950"/>
  <rect class="bar" style="animation-delay:0.112s" x="368" y="210" width="5" height="28" rx="1.5" fill="#3fb950"/>
  <rect class="bar" style="animation-delay:0.124s" x="376" y="210" width="5" height="28" rx="1.5" fill="#3fb950"/>
  <rect class="bar" style="animation-delay:0.136s" x="384" y="210" width="5" height="28" rx="1.5" fill="#3fb950"/>
  <rect class="bar" style="animation-delay:0.148s" x="392" y="210" width="5" height="28" rx="1.5" fill="#3fb950"/>
  <rect class="bar" style="animation-delay:0.160s" x="400" y="210" width="5" height="28" rx="1.5" fill="#3fb950"/>
  <rect class="bar" style="animation-delay:0.172s" x="408" y="210" width="5" height="28" rx="1.5" fill="#3fb950"/>
  <rect class="bar" style="animation-delay:0.184s" x="416" y="210" width="5" height="28" rx="1.5" fill="#3fb950"/>
  <rect class="bar" style="animation-delay:0.196s" x="424" y="210" width="5" height="28" rx="1.5" fill="#3fb950"/>
  <rect class="bar" style="animation-delay:0.208s" x="432" y="210" width="5" height="28" rx="1.5" fill="#3fb950"/>
  <rect class="bar" style="animation-delay:0.220s" x="440" y="210" width="5" height="28" rx="1.5" fill="#3fb950"/>
  <rect class="bar" style="animation-delay:0.232s" x="448" y="210" width="5" height="28" rx="1.5" fill="#3fb950"/>
  <rect class="bar" style="animation-delay:0.244s" x="456" y="210" width="5" height="28" rx="1.5" fill="#3fb950"/>
  <rect class="bar" style="animation-delay:0.256s" x="464" y="210" width="5" height="28" rx="1.5" fill="#3fb950"/>
  <rect class="bar" style="animation-delay:0.268s" x="472" y="210" width="5" height="28" rx="1.5" fill="#3fb950"/>
  <rect class="bar" style="animation-delay:0.280s" x="480" y="210" width="5" height="28" rx="1.5" fill="#3fb950"/>
  <rect class="bar" style="animation-delay:0.292s" x="488" y="210" width="5" height="28" rx="1.5" fill="#3fb950"/>
  <rect class="bar" style="animation-delay:0.304s" x="496" y="210" width="5" height="28" rx="1.5" fill="#3fb950"/>
  <rect class="bar" style="animation-delay:0.316s" x="504" y="210" width="5" height="28" rx="1.5" fill="#3fb950"/>
  <rect class="bar" style="animation-delay:0.328s" x="512" y="210" width="5" height="28" rx="1.5" fill="#3fb950"/>
  <rect class="bar" style="animation-delay:0.340s" x="520" y="210" width="5" height="28" rx="1.5" fill="#3fb950"/>
  <rect class="bar" style="animation-delay:0.352s" x="528" y="210" width="5" height="28" rx="1.5" fill="#3fb950"/>
  <rect class="bar" style="animation-delay:0.364s" x="536" y="210" width="5" height="28" rx="1.5" fill="#3fb950"/>
  <rect class="bar" style="animation-delay:0.376s" x="544" y="210" width="5" height="28" rx="1.5" fill="#3fb950"/>
  <rect class="bar" style="animation-delay:0.388s" x="552" y="210" width="5" height="28" rx="1.5" fill="#3fb950"/>
  <rect class="bar" style="animation-delay:0.400s" x="560" y="210" width="5" height="28" rx="1.5" fill="#3fb950"/>
  <rect class="bar" style="animation-delay:0.412s" x="568" y="210" width="5" height="28" rx="1.5" fill="#3fb950"/>
  <rect class="bar" style="animation-delay:0.424s" x="576" y="210" width="5" height="28" rx="1.5" fill="#3fb950"/>
  <rect class="bar" style="animation-delay:0.436s" x="584" y="210" width="5" height="28" rx="1.5" fill="#3fb950"/>
  <rect class="bar" style="animation-delay:0.448s" x="592" y="210" width="5" height="28" rx="1.5" fill="#3fb950"/>
  <rect class="bar" style="animation-delay:0.460s" x="600" y="210" width="5" height="28" rx="1.5" fill="#3fb950"/>
  <rect class="bar" style="animation-delay:0.472s" x="608" y="210" width="5" height="28" rx="1.5" fill="#3fb950"/>
  <rect class="bar" style="animation-delay:0.484s" x="616" y="210" width="5" height="28" rx="1.5" fill="#3fb950"/>
  <rect class="bar" style="animation-delay:0.496s" x="624" y="210" width="5" height="28" rx="1.5" fill="#3fb950"/>
  <rect class="bar" style="animation-delay:0.508s" x="632" y="210" width="5" height="28" rx="1.5" fill="#3fb950"/>
  <rect class="bar" style="animation-delay:0.520s" x="640" y="210" width="5" height="28" rx="1.5" fill="#3fb950"/>
  <rect class="bar" style="animation-delay:0.532s" x="648" y="210" width="5" height="28" rx="1.5" fill="#3fb950"/>
  <rect class="bar" style="animation-delay:0.544s" x="656" y="210" width="5" height="28" rx="1.5" fill="#3fb950"/>
  <rect class="bar" style="animation-delay:0.556s" x="664" y="210" width="5" height="28" rx="1.5" fill="#3fb950"/>
  <rect class="bar" style="animation-delay:0.568s" x="672" y="210" width="5" height="28" rx="1.5" fill="#3fb950"/>
  <rect class="bar" style="animation-delay:0.580s" x="680" y="210" width="5" height="28" rx="1.5" fill="#d29922"/>
  <rect class="bar" style="animation-delay:0.592s" x="688" y="210" width="5" height="28" rx="1.5" fill="#3fb950"/>
  <rect class="bar" style="animation-delay:0.604s" x="696" y="210" width="5" height="28" rx="1.5" fill="#3fb950"/>
  <rect class="bar" style="animation-delay:0.616s" x="704" y="210" width="5" height="28" rx="1.5" fill="#3fb950"/>
  <rect class="bar" style="animation-delay:0.628s" x="712" y="210" width="5" height="28" rx="1.5" fill="#3fb950"/>
  <rect class="bar" style="animation-delay:0.640s" x="720" y="210" width="5" height="28" rx="1.5" fill="#3fb950"/>
  <rect class="bar" style="animation-delay:0.652s" x="728" y="210" width="5" height="28" rx="1.5" fill="#3fb950"/>
  <rect class="bar" style="animation-delay:0.664s" x="736" y="210" width="5" height="28" rx="1.5" fill="#3fb950"/>
  <text x="860" y="229" text-anchor="end" class="mono" font-size="13" fill="#3fb950">99.97%</text>
  <line x1="40" x2="860" y1="254" y2="254" stroke="#21262d"/>
  <text x="40" y="276" class="sans" font-size="15" font-weight="600" fill="#e6edf3">Infrastructure as Code</text>
  <text x="40" y="295" class="sans" font-size="12.5" fill="#8b949e">Terraform · GitHub Actions</text>
  <rect class="bar" style="animation-delay:0.150s" x="360" y="264" width="5" height="28" rx="1.5" fill="#3fb950"/>
  <rect class="bar" style="animation-delay:0.162s" x="368" y="264" width="5" height="28" rx="1.5" fill="#3fb950"/>
  <rect class="bar" style="animation-delay:0.174s" x="376" y="264" width="5" height="28" rx="1.5" fill="#3fb950"/>
  <rect class="bar" style="animation-delay:0.186s" x="384" y="264" width="5" height="28" rx="1.5" fill="#3fb950"/>
  <rect class="bar" style="animation-delay:0.198s" x="392" y="264" width="5" height="28" rx="1.5" fill="#3fb950"/>
  <rect class="bar" style="animation-delay:0.210s" x="400" y="264" width="5" height="28" rx="1.5" fill="#3fb950"/>
  <rect class="bar" style="animation-delay:0.222s" x="408" y="264" width="5" height="28" rx="1.5" fill="#3fb950"/>
  <rect class="bar" style="animation-delay:0.234s" x="416" y="264" width="5" height="28" rx="1.5" fill="#d29922"/>
  <rect class="bar" style="animation-delay:0.246s" x="424" y="264" width="5" height="28" rx="1.5" fill="#3fb950"/>
  <rect class="bar" style="animation-delay:0.258s" x="432" y="264" width="5" height="28" rx="1.5" fill="#3fb950"/>
  <rect class="bar" style="animation-delay:0.270s" x="440" y="264" width="5" height="28" rx="1.5" fill="#3fb950"/>
  <rect class="bar" style="animation-delay:0.282s" x="448" y="264" width="5" height="28" rx="1.5" fill="#3fb950"/>
  <rect class="bar" style="animation-delay:0.294s" x="456" y="264" width="5" height="28" rx="1.5" fill="#3fb950"/>
  <rect class="bar" style="animation-delay:0.306s" x="464" y="264" width="5" height="28" rx="1.5" fill="#3fb950"/>
  <rect class="bar" style="animation-delay:0.318s" x="472" y="264" width="5" height="28" rx="1.5" fill="#d29922"/>
  <rect class="bar" style="animation-delay:0.330s" x="480" y="264" width="5" height="28" rx="1.5" fill="#3fb950"/>
  <rect class="bar" style="animation-delay:0.342s" x="488" y="264" width="5" height="28" rx="1.5" fill="#3fb950"/>
  <rect class="bar" style="animation-delay:0.354s" x="496" y="264" width="5" height="28" rx="1.5" fill="#3fb950"/>
  <rect class="bar" style="animation-delay:0.366s" x="504" y="264" width="5" height="28" rx="1.5" fill="#3fb950"/>
  <rect class="bar" style="animation-delay:0.378s" x="512" y="264" width="5" height="28" rx="1.5" fill="#3fb950"/>
  <rect class="bar" style="animation-delay:0.390s" x="520" y="264" width="5" height="28" rx="1.5" fill="#3fb950"/>
  <rect class="bar" style="animation-delay:0.402s" x="528" y="264" width="5" height="28" rx="1.5" fill="#3fb950"/>
  <rect class="bar" style="animation-delay:0.414s" x="536" y="264" width="5" height="28" rx="1.5" fill="#3fb950"/>
  <rect class="bar" style="animation-delay:0.426s" x="544" y="264" width="5" height="28" rx="1.5" fill="#3fb950"/>
  <rect class="bar" style="animation-delay:0.438s" x="552" y="264" width="5" height="28" rx="1.5" fill="#3fb950"/>
  <rect class="bar" style="animation-delay:0.450s" x="560" y="264" width="5" height="28" rx="1.5" fill="#3fb950"/>
  <rect class="bar" style="animation-delay:0.462s" x="568" y="264" width="5" height="28" rx="1.5" fill="#3fb950"/>
  <rect class="bar" style="animation-delay:0.474s" x="576" y="264" width="5" height="28" rx="1.5" fill="#3fb950"/>
  <rect class="bar" style="animation-delay:0.486s" x="584" y="264" width="5" height="28" rx="1.5" fill="#3fb950"/>
  <rect class="bar" style="animation-delay:0.498s" x="592" y="264" width="5" height="28" rx="1.5" fill="#3fb950"/>
  <rect class="bar" style="animation-delay:0.510s" x="600" y="264" width="5" height="28" rx="1.5" fill="#3fb950"/>
  <rect class="bar" style="animation-delay:0.522s" x="608" y="264" width="5" height="28" rx="1.5" fill="#3fb950"/>
  <rect class="bar" style="animation-delay:0.534s" x="616" y="264" width="5" height="28" rx="1.5" fill="#3fb950"/>
  <rect class="bar" style="animation-delay:0.546s" x="624" y="264" width="5" height="28" rx="1.5" fill="#3fb950"/>
  <rect class="bar" style="animation-delay:0.558s" x="632" y="264" width="5" height="28" rx="1.5" fill="#3fb950"/>
  <rect class="bar" style="animation-delay:0.570s" x="640" y="264" width="5" height="28" rx="1.5" fill="#3fb950"/>
  <rect class="bar" style="animation-delay:0.582s" x="648" y="264" width="5" height="28" rx="1.5" fill="#3fb950"/>
  <rect class="bar" style="animation-delay:0.594s" x="656" y="264" width="5" height="28" rx="1.5" fill="#3fb950"/>
  <rect class="bar" style="animation-delay:0.606s" x="664" y="264" width="5" height="28" rx="1.5" fill="#3fb950"/>
  <rect class="bar" style="animation-delay:0.618s" x="672" y="264" width="5" height="28" rx="1.5" fill="#3fb950"/>
  <rect class="bar" style="animation-delay:0.630s" x="680" y="264" width="5" height="28" rx="1.5" fill="#3fb950"/>
  <rect class="bar" style="animation-delay:0.642s" x="688" y="264" width="5" height="28" rx="1.5" fill="#3fb950"/>
  <rect class="bar" style="animation-delay:0.654s" x="696" y="264" width="5" height="28" rx="1.5" fill="#3fb950"/>
  <rect class="bar" style="animation-delay:0.666s" x="704" y="264" width="5" height="28" rx="1.5" fill="#3fb950"/>
  <rect class="bar" style="animation-delay:0.678s" x="712" y="264" width="5" height="28" rx="1.5" fill="#3fb950"/>
  <rect class="bar" style="animation-delay:0.690s" x="720" y="264" width="5" height="28" rx="1.5" fill="#3fb950"/>
  <rect class="bar" style="animation-delay:0.702s" x="728" y="264" width="5" height="28" rx="1.5" fill="#3fb950"/>
  <rect class="bar" style="animation-delay:0.714s" x="736" y="264" width="5" height="28" rx="1.5" fill="#3fb950"/>
  <text x="860" y="283" text-anchor="end" class="mono" font-size="13" fill="#3fb950">100%</text>
  <line x1="40" x2="860" y1="308" y2="308" stroke="#21262d"/>
  <text x="40" y="330" class="sans" font-size="15" font-weight="600" fill="#e6edf3">Observability</text>
  <text x="40" y="349" class="sans" font-size="12.5" fill="#8b949e">Prometheus · Grafana · SLOs over vibes</text>
  <rect class="bar" style="animation-delay:0.200s" x="360" y="318" width="5" height="28" rx="1.5" fill="#3fb950"/>
  <rect class="bar" style="animation-delay:0.212s" x="368" y="318" width="5" height="28" rx="1.5" fill="#3fb950"/>
  <rect class="bar" style="animation-delay:0.224s" x="376" y="318" width="5" height="28" rx="1.5" fill="#3fb950"/>
  <rect class="bar" style="animation-delay:0.236s" x="384" y="318" width="5" height="28" rx="1.5" fill="#3fb950"/>
  <rect class="bar" style="animation-delay:0.248s" x="392" y="318" width="5" height="28" rx="1.5" fill="#3fb950"/>
  <rect class="bar" style="animation-delay:0.260s" x="400" y="318" width="5" height="28" rx="1.5" fill="#3fb950"/>
  <rect class="bar" style="animation-delay:0.272s" x="408" y="318" width="5" height="28" rx="1.5" fill="#3fb950"/>
  <rect class="bar" style="animation-delay:0.284s" x="416" y="318" width="5" height="28" rx="1.5" fill="#3fb950"/>
  <rect class="bar" style="animation-delay:0.296s" x="424" y="318" width="5" height="28" rx="1.5" fill="#3fb950"/>
  <rect class="bar" style="animation-delay:0.308s" x="432" y="318" width="5" height="28" rx="1.5" fill="#3fb950"/>
  <rect class="bar" style="animation-delay:0.320s" x="440" y="318" width="5" height="28" rx="1.5" fill="#3fb950"/>
  <rect class="bar" style="animation-delay:0.332s" x="448" y="318" width="5" height="28" rx="1.5" fill="#3fb950"/>
  <rect class="bar" style="animation-delay:0.344s" x="456" y="318" width="5" height="28" rx="1.5" fill="#3fb950"/>
  <rect class="bar" style="animation-delay:0.356s" x="464" y="318" width="5" height="28" rx="1.5" fill="#3fb950"/>
  <rect class="bar" style="animation-delay:0.368s" x="472" y="318" width="5" height="28" rx="1.5" fill="#3fb950"/>
  <rect class="bar" style="animation-delay:0.380s" x="480" y="318" width="5" height="28" rx="1.5" fill="#3fb950"/>
  <rect class="bar" style="animation-delay:0.392s" x="488" y="318" width="5" height="28" rx="1.5" fill="#3fb950"/>
  <rect class="bar" style="animation-delay:0.404s" x="496" y="318" width="5" height="28" rx="1.5" fill="#3fb950"/>
  <rect class="bar" style="animation-delay:0.416s" x="504" y="318" width="5" height="28" rx="1.5" fill="#3fb950"/>
  <rect class="bar" style="animation-delay:0.428s" x="512" y="318" width="5" height="28" rx="1.5" fill="#3fb950"/>
  <rect class="bar" style="animation-delay:0.440s" x="520" y="318" width="5" height="28" rx="1.5" fill="#3fb950"/>
  <rect class="bar" style="animation-delay:0.452s" x="528" y="318" width="5" height="28" rx="1.5" fill="#d29922"/>
  <rect class="bar" style="animation-delay:0.464s" x="536" y="318" width="5" height="28" rx="1.5" fill="#3fb950"/>
  <rect class="bar" style="animation-delay:0.476s" x="544" y="318" width="5" height="28" rx="1.5" fill="#3fb950"/>
  <rect class="bar" style="animation-delay:0.488s" x="552" y="318" width="5" height="28" rx="1.5" fill="#3fb950"/>
  <rect class="bar" style="animation-delay:0.500s" x="560" y="318" width="5" height="28" rx="1.5" fill="#3fb950"/>
  <rect class="bar" style="animation-delay:0.512s" x="568" y="318" width="5" height="28" rx="1.5" fill="#3fb950"/>
  <rect class="bar" style="animation-delay:0.524s" x="576" y="318" width="5" height="28" rx="1.5" fill="#3fb950"/>
  <rect class="bar" style="animation-delay:0.536s" x="584" y="318" width="5" height="28" rx="1.5" fill="#3fb950"/>
  <rect class="bar" style="animation-delay:0.548s" x="592" y="318" width="5" height="28" rx="1.5" fill="#3fb950"/>
  <rect class="bar" style="animation-delay:0.560s" x="600" y="318" width="5" height="28" rx="1.5" fill="#3fb950"/>
  <rect class="bar" style="animation-delay:0.572s" x="608" y="318" width="5" height="28" rx="1.5" fill="#3fb950"/>
  <rect class="bar" style="animation-delay:0.584s" x="616" y="318" width="5" height="28" rx="1.5" fill="#3fb950"/>
  <rect class="bar" style="animation-delay:0.596s" x="624" y="318" width="5" height="28" rx="1.5" fill="#3fb950"/>
  <rect class="bar" style="animation-delay:0.608s" x="632" y="318" width="5" height="28" rx="1.5" fill="#3fb950"/>
  <rect class="bar" style="animation-delay:0.620s" x="640" y="318" width="5" height="28" rx="1.5" fill="#3fb950"/>
  <rect class="bar" style="animation-delay:0.632s" x="648" y="318" width="5" height="28" rx="1.5" fill="#3fb950"/>
  <rect class="bar" style="animation-delay:0.644s" x="656" y="318" width="5" height="28" rx="1.5" fill="#3fb950"/>
  <rect class="bar" style="animation-delay:0.656s" x="664" y="318" width="5" height="28" rx="1.5" fill="#3fb950"/>
  <rect class="bar" style="animation-delay:0.668s" x="672" y="318" width="5" height="28" rx="1.5" fill="#3fb950"/>
  <rect class="bar" style="animation-delay:0.680s" x="680" y="318" width="5" height="28" rx="1.5" fill="#3fb950"/>
  <rect class="bar" style="animation-delay:0.692s" x="688" y="318" width="5" height="28" rx="1.5" fill="#3fb950"/>
  <rect class="bar" style="animation-delay:0.704s" x="696" y="318" width="5" height="28" rx="1.5" fill="#3fb950"/>
  <rect class="bar" style="animation-delay:0.716s" x="704" y="318" width="5" height="28" rx="1.5" fill="#3fb950"/>
  <rect class="bar" style="animation-delay:0.728s" x="712" y="318" width="5" height="28" rx="1.5" fill="#3fb950"/>
  <rect class="bar" style="animation-delay:0.740s" x="720" y="318" width="5" height="28" rx="1.5" fill="#3fb950"/>
  <rect class="bar" style="animation-delay:0.752s" x="728" y="318" width="5" height="28" rx="1.5" fill="#3fb950"/>
  <rect class="bar" style="animation-delay:0.764s" x="736" y="318" width="5" height="28" rx="1.5" fill="#3fb950"/>
  <text x="860" y="337" text-anchor="end" class="mono" font-size="13" fill="#3fb950">99.99%</text>
</svg>
